<mxfile host="app.diagrams.net" modified="2023-06-27T18:54:23.412Z" agent="Mozilla/5.0 (Windows NT 10.0; Win64; x64) AppleWebKit/537.36 (KHTML, like Gecko) Chrome/114.0.0.0 Safari/537.36 Edg/114.0.1823.58" etag="bFx3-SAo4xwbTbG3QIkN" version="21.5.1" type="google">
  <diagram id="C5RBs43oDa-KdzZeNtuy" name="Page-1">
    <mxGraphModel grid="1" page="1" gridSize="10" guides="1" tooltips="1" connect="1" arrows="1" fold="1" pageScale="1" pageWidth="500" pageHeight="500" math="0" shadow="0">
      <root>
        <mxCell id="WIyWlLk6GJQsqaUBKTNV-0" />
        <mxCell id="WIyWlLk6GJQsqaUBKTNV-1" parent="WIyWlLk6GJQsqaUBKTNV-0" />
        <mxCell id="WIyWlLk6GJQsqaUBKTNV-3" value="Aluno" style="rounded=1;whiteSpace=wrap;html=1;fontSize=12;glass=0;strokeWidth=1;shadow=0;" vertex="1" parent="WIyWlLk6GJQsqaUBKTNV-1">
          <mxGeometry x="65" y="40" width="80" height="40" as="geometry" />
        </mxCell>
        <mxCell id="fsZ3sS60L4N1dTeN183x-74" style="edgeStyle=orthogonalEdgeStyle;rounded=0;orthogonalLoop=1;jettySize=auto;html=1;exitX=1;exitY=0.5;exitDx=0;exitDy=0;endArrow=none;endFill=0;" edge="1" parent="WIyWlLk6GJQsqaUBKTNV-1" source="IKDugCpGYjPwVXNT7T2_-0">
          <mxGeometry relative="1" as="geometry">
            <mxPoint x="365" y="180.19047619047615" as="targetPoint" />
          </mxGeometry>
        </mxCell>
        <mxCell id="IKDugCpGYjPwVXNT7T2_-0" value="Curso" style="rounded=1;whiteSpace=wrap;html=1;" vertex="1" parent="WIyWlLk6GJQsqaUBKTNV-1">
          <mxGeometry x="265" y="160" width="80" height="40" as="geometry" />
        </mxCell>
        <mxCell id="IKDugCpGYjPwVXNT7T2_-1" value="Professor" style="rounded=1;whiteSpace=wrap;html=1;fontSize=12;glass=0;strokeWidth=1;shadow=0;" vertex="1" parent="WIyWlLk6GJQsqaUBKTNV-1">
          <mxGeometry x="65" y="280" width="80" height="40" as="geometry" />
        </mxCell>
        <mxCell id="IKDugCpGYjPwVXNT7T2_-2" value="Leciona" style="rhombus;whiteSpace=wrap;html=1;" vertex="1" parent="WIyWlLk6GJQsqaUBKTNV-1">
          <mxGeometry x="265" y="280" width="80" height="40" as="geometry" />
        </mxCell>
        <mxCell id="IKDugCpGYjPwVXNT7T2_-3" value="Assina" style="rhombus;whiteSpace=wrap;html=1;" vertex="1" parent="WIyWlLk6GJQsqaUBKTNV-1">
          <mxGeometry x="265" y="40" width="80" height="40" as="geometry" />
        </mxCell>
        <mxCell id="IKDugCpGYjPwVXNT7T2_-4" value="" style="endArrow=none;html=1;rounded=0;exitX=1;exitY=0.5;exitDx=0;exitDy=0;entryX=0;entryY=0.5;entryDx=0;entryDy=0;" edge="1" parent="WIyWlLk6GJQsqaUBKTNV-1" source="IKDugCpGYjPwVXNT7T2_-1" target="IKDugCpGYjPwVXNT7T2_-2">
          <mxGeometry width="50" height="50" relative="1" as="geometry">
            <mxPoint x="295" y="210" as="sourcePoint" />
            <mxPoint x="345" y="160" as="targetPoint" />
          </mxGeometry>
        </mxCell>
        <mxCell id="IKDugCpGYjPwVXNT7T2_-5" value="" style="endArrow=none;html=1;rounded=0;exitX=1;exitY=0.5;exitDx=0;exitDy=0;entryX=0;entryY=0.5;entryDx=0;entryDy=0;" edge="1" parent="WIyWlLk6GJQsqaUBKTNV-1">
          <mxGeometry width="50" height="50" relative="1" as="geometry">
            <mxPoint x="145" y="59.5" as="sourcePoint" />
            <mxPoint x="265" y="59.5" as="targetPoint" />
          </mxGeometry>
        </mxCell>
        <mxCell id="IKDugCpGYjPwVXNT7T2_-6" value="" style="endArrow=none;html=1;rounded=0;exitX=0.5;exitY=0;exitDx=0;exitDy=0;entryX=0.5;entryY=1;entryDx=0;entryDy=0;" edge="1" parent="WIyWlLk6GJQsqaUBKTNV-1" source="IKDugCpGYjPwVXNT7T2_-0" target="IKDugCpGYjPwVXNT7T2_-3">
          <mxGeometry width="50" height="50" relative="1" as="geometry">
            <mxPoint x="155" y="69.5" as="sourcePoint" />
            <mxPoint x="275" y="69.5" as="targetPoint" />
            <Array as="points">
              <mxPoint x="305" y="160" />
            </Array>
          </mxGeometry>
        </mxCell>
        <mxCell id="IKDugCpGYjPwVXNT7T2_-7" value="" style="endArrow=none;html=1;rounded=0;exitX=0.5;exitY=0;exitDx=0;exitDy=0;entryX=0.5;entryY=1;entryDx=0;entryDy=0;" edge="1" parent="WIyWlLk6GJQsqaUBKTNV-1">
          <mxGeometry width="50" height="50" relative="1" as="geometry">
            <mxPoint x="302.5" y="280" as="sourcePoint" />
            <mxPoint x="302.5" y="200" as="targetPoint" />
            <Array as="points" />
          </mxGeometry>
        </mxCell>
        <mxCell id="IKDugCpGYjPwVXNT7T2_-8" value="cpf" style="text;html=1;strokeColor=none;fillColor=none;align=left;verticalAlign=middle;whiteSpace=wrap;rounded=0;fontStyle=4" vertex="1" parent="WIyWlLk6GJQsqaUBKTNV-1">
          <mxGeometry x="95" y="85" width="40" height="20" as="geometry" />
        </mxCell>
        <mxCell id="IKDugCpGYjPwVXNT7T2_-10" value="0...N" style="text;html=1;strokeColor=none;fillColor=none;align=center;verticalAlign=middle;whiteSpace=wrap;rounded=0;" vertex="1" parent="WIyWlLk6GJQsqaUBKTNV-1">
          <mxGeometry x="305" y="140" width="40" height="20" as="geometry" />
        </mxCell>
        <mxCell id="IKDugCpGYjPwVXNT7T2_-12" value="0...N" style="text;html=1;strokeColor=none;fillColor=none;align=center;verticalAlign=middle;whiteSpace=wrap;rounded=0;" vertex="1" parent="WIyWlLk6GJQsqaUBKTNV-1">
          <mxGeometry x="305" y="200" width="40" height="20" as="geometry" />
        </mxCell>
        <mxCell id="IKDugCpGYjPwVXNT7T2_-13" value="1" style="text;html=1;strokeColor=none;fillColor=none;align=center;verticalAlign=middle;whiteSpace=wrap;rounded=0;" vertex="1" parent="WIyWlLk6GJQsqaUBKTNV-1">
          <mxGeometry x="145" y="280" width="40" height="20" as="geometry" />
        </mxCell>
        <mxCell id="IKDugCpGYjPwVXNT7T2_-24" style="edgeStyle=orthogonalEdgeStyle;rounded=0;orthogonalLoop=1;jettySize=auto;html=1;exitX=0;exitY=0.5;exitDx=0;exitDy=0;endArrow=none;endFill=0;" edge="1" parent="WIyWlLk6GJQsqaUBKTNV-1" source="IKDugCpGYjPwVXNT7T2_-15">
          <mxGeometry relative="1" as="geometry">
            <mxPoint x="65" y="95" as="targetPoint" />
          </mxGeometry>
        </mxCell>
        <mxCell id="IKDugCpGYjPwVXNT7T2_-15" value="" style="ellipse;whiteSpace=wrap;html=1;aspect=fixed;" vertex="1" parent="WIyWlLk6GJQsqaUBKTNV-1">
          <mxGeometry x="85" y="90" width="10" height="10" as="geometry" />
        </mxCell>
        <mxCell id="IKDugCpGYjPwVXNT7T2_-25" style="edgeStyle=orthogonalEdgeStyle;rounded=0;orthogonalLoop=1;jettySize=auto;html=1;exitX=0;exitY=0.5;exitDx=0;exitDy=0;endArrow=none;endFill=0;" edge="1" parent="WIyWlLk6GJQsqaUBKTNV-1" source="IKDugCpGYjPwVXNT7T2_-19">
          <mxGeometry relative="1" as="geometry">
            <mxPoint x="65" y="115" as="targetPoint" />
          </mxGeometry>
        </mxCell>
        <mxCell id="IKDugCpGYjPwVXNT7T2_-19" value="" style="ellipse;whiteSpace=wrap;html=1;aspect=fixed;" vertex="1" parent="WIyWlLk6GJQsqaUBKTNV-1">
          <mxGeometry x="85" y="110" width="10" height="10" as="geometry" />
        </mxCell>
        <mxCell id="IKDugCpGYjPwVXNT7T2_-26" style="edgeStyle=orthogonalEdgeStyle;rounded=0;orthogonalLoop=1;jettySize=auto;html=1;exitX=0;exitY=0.5;exitDx=0;exitDy=0;endArrow=none;endFill=0;" edge="1" parent="WIyWlLk6GJQsqaUBKTNV-1" source="IKDugCpGYjPwVXNT7T2_-20">
          <mxGeometry relative="1" as="geometry">
            <mxPoint x="65" y="135" as="targetPoint" />
          </mxGeometry>
        </mxCell>
        <mxCell id="IKDugCpGYjPwVXNT7T2_-20" value="" style="ellipse;whiteSpace=wrap;html=1;aspect=fixed;" vertex="1" parent="WIyWlLk6GJQsqaUBKTNV-1">
          <mxGeometry x="85" y="130" width="10" height="10" as="geometry" />
        </mxCell>
        <mxCell id="IKDugCpGYjPwVXNT7T2_-27" style="edgeStyle=orthogonalEdgeStyle;rounded=0;orthogonalLoop=1;jettySize=auto;html=1;exitX=0;exitY=0.5;exitDx=0;exitDy=0;endArrow=none;endFill=0;" edge="1" parent="WIyWlLk6GJQsqaUBKTNV-1" source="IKDugCpGYjPwVXNT7T2_-21">
          <mxGeometry relative="1" as="geometry">
            <mxPoint x="65" y="155" as="targetPoint" />
          </mxGeometry>
        </mxCell>
        <mxCell id="IKDugCpGYjPwVXNT7T2_-21" value="" style="ellipse;whiteSpace=wrap;html=1;aspect=fixed;" vertex="1" parent="WIyWlLk6GJQsqaUBKTNV-1">
          <mxGeometry x="85" y="150" width="10" height="10" as="geometry" />
        </mxCell>
        <mxCell id="IKDugCpGYjPwVXNT7T2_-28" style="edgeStyle=orthogonalEdgeStyle;rounded=0;orthogonalLoop=1;jettySize=auto;html=1;exitX=0;exitY=0.5;exitDx=0;exitDy=0;endArrow=none;endFill=0;" edge="1" parent="WIyWlLk6GJQsqaUBKTNV-1" source="IKDugCpGYjPwVXNT7T2_-22">
          <mxGeometry relative="1" as="geometry">
            <mxPoint x="65" y="175" as="targetPoint" />
          </mxGeometry>
        </mxCell>
        <mxCell id="IKDugCpGYjPwVXNT7T2_-22" value="" style="ellipse;whiteSpace=wrap;html=1;aspect=fixed;" vertex="1" parent="WIyWlLk6GJQsqaUBKTNV-1">
          <mxGeometry x="85" y="170" width="10" height="10" as="geometry" />
        </mxCell>
        <mxCell id="IKDugCpGYjPwVXNT7T2_-23" value="" style="endArrow=none;html=1;rounded=0;entryX=0;entryY=0.75;entryDx=0;entryDy=0;" edge="1" parent="WIyWlLk6GJQsqaUBKTNV-1" target="WIyWlLk6GJQsqaUBKTNV-3">
          <mxGeometry width="50" height="50" relative="1" as="geometry">
            <mxPoint x="65" y="180" as="sourcePoint" />
            <mxPoint x="185" y="150" as="targetPoint" />
          </mxGeometry>
        </mxCell>
        <mxCell id="IKDugCpGYjPwVXNT7T2_-29" value="0...N" style="text;html=1;strokeColor=none;fillColor=none;align=center;verticalAlign=middle;whiteSpace=wrap;rounded=0;" vertex="1" parent="WIyWlLk6GJQsqaUBKTNV-1">
          <mxGeometry x="145" y="40" width="40" height="20" as="geometry" />
        </mxCell>
        <mxCell id="IKDugCpGYjPwVXNT7T2_-30" value="nome" style="text;html=1;strokeColor=none;fillColor=none;align=left;verticalAlign=middle;whiteSpace=wrap;rounded=0;fontStyle=0" vertex="1" parent="WIyWlLk6GJQsqaUBKTNV-1">
          <mxGeometry x="95" y="105" width="40" height="20" as="geometry" />
        </mxCell>
        <mxCell id="IKDugCpGYjPwVXNT7T2_-31" value="idade" style="text;html=1;strokeColor=none;fillColor=none;align=left;verticalAlign=middle;whiteSpace=wrap;rounded=0;fontStyle=0" vertex="1" parent="WIyWlLk6GJQsqaUBKTNV-1">
          <mxGeometry x="95" y="125" width="40" height="20" as="geometry" />
        </mxCell>
        <mxCell id="IKDugCpGYjPwVXNT7T2_-32" value="gênero" style="text;html=1;strokeColor=none;fillColor=none;align=left;verticalAlign=middle;whiteSpace=wrap;rounded=0;fontStyle=0" vertex="1" parent="WIyWlLk6GJQsqaUBKTNV-1">
          <mxGeometry x="95" y="145" width="40" height="20" as="geometry" />
        </mxCell>
        <mxCell id="IKDugCpGYjPwVXNT7T2_-34" value="email" style="text;html=1;strokeColor=none;fillColor=none;align=left;verticalAlign=middle;whiteSpace=wrap;rounded=0;fontStyle=0" vertex="1" parent="WIyWlLk6GJQsqaUBKTNV-1">
          <mxGeometry x="95" y="165" width="40" height="20" as="geometry" />
        </mxCell>
        <mxCell id="fsZ3sS60L4N1dTeN183x-40" value="cpf" style="text;html=1;strokeColor=none;fillColor=none;align=left;verticalAlign=middle;whiteSpace=wrap;rounded=0;fontStyle=4" vertex="1" parent="WIyWlLk6GJQsqaUBKTNV-1">
          <mxGeometry x="95" y="325" width="40" height="20" as="geometry" />
        </mxCell>
        <mxCell id="fsZ3sS60L4N1dTeN183x-41" style="edgeStyle=orthogonalEdgeStyle;rounded=0;orthogonalLoop=1;jettySize=auto;html=1;exitX=0;exitY=0.5;exitDx=0;exitDy=0;endArrow=none;endFill=0;" edge="1" parent="WIyWlLk6GJQsqaUBKTNV-1" source="fsZ3sS60L4N1dTeN183x-42">
          <mxGeometry relative="1" as="geometry">
            <mxPoint x="65" y="335" as="targetPoint" />
          </mxGeometry>
        </mxCell>
        <mxCell id="fsZ3sS60L4N1dTeN183x-42" value="" style="ellipse;whiteSpace=wrap;html=1;aspect=fixed;" vertex="1" parent="WIyWlLk6GJQsqaUBKTNV-1">
          <mxGeometry x="85" y="330" width="10" height="10" as="geometry" />
        </mxCell>
        <mxCell id="fsZ3sS60L4N1dTeN183x-43" style="edgeStyle=orthogonalEdgeStyle;rounded=0;orthogonalLoop=1;jettySize=auto;html=1;exitX=0;exitY=0.5;exitDx=0;exitDy=0;endArrow=none;endFill=0;" edge="1" parent="WIyWlLk6GJQsqaUBKTNV-1" source="fsZ3sS60L4N1dTeN183x-44">
          <mxGeometry relative="1" as="geometry">
            <mxPoint x="65" y="355" as="targetPoint" />
          </mxGeometry>
        </mxCell>
        <mxCell id="fsZ3sS60L4N1dTeN183x-44" value="" style="ellipse;whiteSpace=wrap;html=1;aspect=fixed;" vertex="1" parent="WIyWlLk6GJQsqaUBKTNV-1">
          <mxGeometry x="85" y="350" width="10" height="10" as="geometry" />
        </mxCell>
        <mxCell id="fsZ3sS60L4N1dTeN183x-45" style="edgeStyle=orthogonalEdgeStyle;rounded=0;orthogonalLoop=1;jettySize=auto;html=1;exitX=0;exitY=0.5;exitDx=0;exitDy=0;endArrow=none;endFill=0;" edge="1" parent="WIyWlLk6GJQsqaUBKTNV-1" source="fsZ3sS60L4N1dTeN183x-46">
          <mxGeometry relative="1" as="geometry">
            <mxPoint x="65" y="375" as="targetPoint" />
          </mxGeometry>
        </mxCell>
        <mxCell id="fsZ3sS60L4N1dTeN183x-46" value="" style="ellipse;whiteSpace=wrap;html=1;aspect=fixed;" vertex="1" parent="WIyWlLk6GJQsqaUBKTNV-1">
          <mxGeometry x="85" y="370" width="10" height="10" as="geometry" />
        </mxCell>
        <mxCell id="fsZ3sS60L4N1dTeN183x-47" style="edgeStyle=orthogonalEdgeStyle;rounded=0;orthogonalLoop=1;jettySize=auto;html=1;exitX=0;exitY=0.5;exitDx=0;exitDy=0;endArrow=none;endFill=0;" edge="1" parent="WIyWlLk6GJQsqaUBKTNV-1" source="fsZ3sS60L4N1dTeN183x-48">
          <mxGeometry relative="1" as="geometry">
            <mxPoint x="65" y="395" as="targetPoint" />
          </mxGeometry>
        </mxCell>
        <mxCell id="fsZ3sS60L4N1dTeN183x-48" value="" style="ellipse;whiteSpace=wrap;html=1;aspect=fixed;" vertex="1" parent="WIyWlLk6GJQsqaUBKTNV-1">
          <mxGeometry x="85" y="390" width="10" height="10" as="geometry" />
        </mxCell>
        <mxCell id="fsZ3sS60L4N1dTeN183x-49" style="edgeStyle=orthogonalEdgeStyle;rounded=0;orthogonalLoop=1;jettySize=auto;html=1;exitX=0;exitY=0.5;exitDx=0;exitDy=0;endArrow=none;endFill=0;" edge="1" parent="WIyWlLk6GJQsqaUBKTNV-1" source="fsZ3sS60L4N1dTeN183x-50">
          <mxGeometry relative="1" as="geometry">
            <mxPoint x="65" y="415" as="targetPoint" />
          </mxGeometry>
        </mxCell>
        <mxCell id="fsZ3sS60L4N1dTeN183x-50" value="" style="ellipse;whiteSpace=wrap;html=1;aspect=fixed;" vertex="1" parent="WIyWlLk6GJQsqaUBKTNV-1">
          <mxGeometry x="85" y="410" width="10" height="10" as="geometry" />
        </mxCell>
        <mxCell id="fsZ3sS60L4N1dTeN183x-51" value="" style="endArrow=none;html=1;rounded=0;entryX=0;entryY=0.75;entryDx=0;entryDy=0;" edge="1" parent="WIyWlLk6GJQsqaUBKTNV-1">
          <mxGeometry width="50" height="50" relative="1" as="geometry">
            <mxPoint x="65" y="440" as="sourcePoint" />
            <mxPoint x="65" y="310" as="targetPoint" />
          </mxGeometry>
        </mxCell>
        <mxCell id="fsZ3sS60L4N1dTeN183x-52" value="nome" style="text;html=1;strokeColor=none;fillColor=none;align=left;verticalAlign=middle;whiteSpace=wrap;rounded=0;fontStyle=0" vertex="1" parent="WIyWlLk6GJQsqaUBKTNV-1">
          <mxGeometry x="95" y="345" width="40" height="20" as="geometry" />
        </mxCell>
        <mxCell id="fsZ3sS60L4N1dTeN183x-53" value="idade" style="text;html=1;strokeColor=none;fillColor=none;align=left;verticalAlign=middle;whiteSpace=wrap;rounded=0;fontStyle=0" vertex="1" parent="WIyWlLk6GJQsqaUBKTNV-1">
          <mxGeometry x="95" y="365" width="40" height="20" as="geometry" />
        </mxCell>
        <mxCell id="fsZ3sS60L4N1dTeN183x-54" value="gênero" style="text;html=1;strokeColor=none;fillColor=none;align=left;verticalAlign=middle;whiteSpace=wrap;rounded=0;fontStyle=0" vertex="1" parent="WIyWlLk6GJQsqaUBKTNV-1">
          <mxGeometry x="95" y="385" width="40" height="20" as="geometry" />
        </mxCell>
        <mxCell id="fsZ3sS60L4N1dTeN183x-56" value="código" style="text;html=1;strokeColor=none;fillColor=none;align=left;verticalAlign=middle;whiteSpace=wrap;rounded=0;fontStyle=4" vertex="1" parent="WIyWlLk6GJQsqaUBKTNV-1">
          <mxGeometry x="395" y="129.5" width="40" height="20" as="geometry" />
        </mxCell>
        <mxCell id="fsZ3sS60L4N1dTeN183x-57" style="edgeStyle=orthogonalEdgeStyle;rounded=0;orthogonalLoop=1;jettySize=auto;html=1;exitX=0;exitY=0.5;exitDx=0;exitDy=0;endArrow=none;endFill=0;" edge="1" parent="WIyWlLk6GJQsqaUBKTNV-1">
          <mxGeometry relative="1" as="geometry">
            <mxPoint x="365" y="240.5" as="targetPoint" />
            <mxPoint x="385" y="140.00000000000006" as="sourcePoint" />
          </mxGeometry>
        </mxCell>
        <mxCell id="fsZ3sS60L4N1dTeN183x-58" value="" style="ellipse;whiteSpace=wrap;html=1;aspect=fixed;" vertex="1" parent="WIyWlLk6GJQsqaUBKTNV-1">
          <mxGeometry x="385" y="134.5" width="10" height="10" as="geometry" />
        </mxCell>
        <mxCell id="fsZ3sS60L4N1dTeN183x-59" style="edgeStyle=orthogonalEdgeStyle;rounded=0;orthogonalLoop=1;jettySize=auto;html=1;exitX=0;exitY=0.5;exitDx=0;exitDy=0;endArrow=none;endFill=0;" edge="1" parent="WIyWlLk6GJQsqaUBKTNV-1" source="fsZ3sS60L4N1dTeN183x-60">
          <mxGeometry relative="1" as="geometry">
            <mxPoint x="365" y="159.5" as="targetPoint" />
          </mxGeometry>
        </mxCell>
        <mxCell id="fsZ3sS60L4N1dTeN183x-60" value="" style="ellipse;whiteSpace=wrap;html=1;aspect=fixed;" vertex="1" parent="WIyWlLk6GJQsqaUBKTNV-1">
          <mxGeometry x="385" y="154.5" width="10" height="10" as="geometry" />
        </mxCell>
        <mxCell id="fsZ3sS60L4N1dTeN183x-61" style="edgeStyle=orthogonalEdgeStyle;rounded=0;orthogonalLoop=1;jettySize=auto;html=1;exitX=0;exitY=0.5;exitDx=0;exitDy=0;endArrow=none;endFill=0;" edge="1" parent="WIyWlLk6GJQsqaUBKTNV-1" source="fsZ3sS60L4N1dTeN183x-62">
          <mxGeometry relative="1" as="geometry">
            <mxPoint x="365" y="179.5" as="targetPoint" />
          </mxGeometry>
        </mxCell>
        <mxCell id="fsZ3sS60L4N1dTeN183x-62" value="" style="ellipse;whiteSpace=wrap;html=1;aspect=fixed;" vertex="1" parent="WIyWlLk6GJQsqaUBKTNV-1">
          <mxGeometry x="385" y="174.5" width="10" height="10" as="geometry" />
        </mxCell>
        <mxCell id="fsZ3sS60L4N1dTeN183x-63" style="edgeStyle=orthogonalEdgeStyle;rounded=0;orthogonalLoop=1;jettySize=auto;html=1;exitX=0;exitY=0.5;exitDx=0;exitDy=0;endArrow=none;endFill=0;" edge="1" parent="WIyWlLk6GJQsqaUBKTNV-1" source="fsZ3sS60L4N1dTeN183x-64">
          <mxGeometry relative="1" as="geometry">
            <mxPoint x="365" y="199.5" as="targetPoint" />
          </mxGeometry>
        </mxCell>
        <mxCell id="fsZ3sS60L4N1dTeN183x-64" value="" style="ellipse;whiteSpace=wrap;html=1;aspect=fixed;" vertex="1" parent="WIyWlLk6GJQsqaUBKTNV-1">
          <mxGeometry x="385" y="194.5" width="10" height="10" as="geometry" />
        </mxCell>
        <mxCell id="fsZ3sS60L4N1dTeN183x-65" style="edgeStyle=orthogonalEdgeStyle;rounded=0;orthogonalLoop=1;jettySize=auto;html=1;exitX=0;exitY=0.5;exitDx=0;exitDy=0;endArrow=none;endFill=0;" edge="1" parent="WIyWlLk6GJQsqaUBKTNV-1" source="fsZ3sS60L4N1dTeN183x-66">
          <mxGeometry relative="1" as="geometry">
            <mxPoint x="365" y="219.5" as="targetPoint" />
          </mxGeometry>
        </mxCell>
        <mxCell id="fsZ3sS60L4N1dTeN183x-66" value="" style="ellipse;whiteSpace=wrap;html=1;aspect=fixed;" vertex="1" parent="WIyWlLk6GJQsqaUBKTNV-1">
          <mxGeometry x="385" y="214.5" width="10" height="10" as="geometry" />
        </mxCell>
        <mxCell id="fsZ3sS60L4N1dTeN183x-68" value="título" style="text;html=1;strokeColor=none;fillColor=none;align=left;verticalAlign=middle;whiteSpace=wrap;rounded=0;fontStyle=0" vertex="1" parent="WIyWlLk6GJQsqaUBKTNV-1">
          <mxGeometry x="395" y="149.5" width="40" height="20" as="geometry" />
        </mxCell>
        <mxCell id="fsZ3sS60L4N1dTeN183x-69" value="duração" style="text;html=1;strokeColor=none;fillColor=none;align=left;verticalAlign=middle;whiteSpace=wrap;rounded=0;fontStyle=0" vertex="1" parent="WIyWlLk6GJQsqaUBKTNV-1">
          <mxGeometry x="395" y="169.5" width="40" height="20" as="geometry" />
        </mxCell>
        <mxCell id="fsZ3sS60L4N1dTeN183x-70" value="categoria" style="text;html=1;strokeColor=none;fillColor=none;align=left;verticalAlign=middle;whiteSpace=wrap;rounded=0;fontStyle=0" vertex="1" parent="WIyWlLk6GJQsqaUBKTNV-1">
          <mxGeometry x="395" y="189.5" width="40" height="20" as="geometry" />
        </mxCell>
        <mxCell id="fsZ3sS60L4N1dTeN183x-71" value="avaliação" style="text;html=1;strokeColor=none;fillColor=none;align=left;verticalAlign=middle;whiteSpace=wrap;rounded=0;fontStyle=0" vertex="1" parent="WIyWlLk6GJQsqaUBKTNV-1">
          <mxGeometry x="395" y="209.5" width="40" height="20" as="geometry" />
        </mxCell>
        <mxCell id="fsZ3sS60L4N1dTeN183x-75" style="edgeStyle=orthogonalEdgeStyle;rounded=0;orthogonalLoop=1;jettySize=auto;html=1;exitX=0;exitY=0.5;exitDx=0;exitDy=0;endArrow=none;endFill=0;" edge="1" parent="WIyWlLk6GJQsqaUBKTNV-1" source="fsZ3sS60L4N1dTeN183x-76">
          <mxGeometry relative="1" as="geometry">
            <mxPoint x="65" y="435" as="targetPoint" />
          </mxGeometry>
        </mxCell>
        <mxCell id="fsZ3sS60L4N1dTeN183x-76" value="" style="ellipse;whiteSpace=wrap;html=1;aspect=fixed;" vertex="1" parent="WIyWlLk6GJQsqaUBKTNV-1">
          <mxGeometry x="85" y="430" width="10" height="10" as="geometry" />
        </mxCell>
        <mxCell id="fsZ3sS60L4N1dTeN183x-81" value="data_de_cadastro" style="text;html=1;strokeColor=none;fillColor=none;align=left;verticalAlign=middle;whiteSpace=wrap;rounded=0;fontStyle=0" vertex="1" parent="WIyWlLk6GJQsqaUBKTNV-1">
          <mxGeometry x="95" y="406" width="40" height="20" as="geometry" />
        </mxCell>
        <mxCell id="fsZ3sS60L4N1dTeN183x-82" value="email" style="text;html=1;strokeColor=none;fillColor=none;align=left;verticalAlign=middle;whiteSpace=wrap;rounded=0;fontStyle=0" vertex="1" parent="WIyWlLk6GJQsqaUBKTNV-1">
          <mxGeometry x="95" y="426" width="40" height="20" as="geometry" />
        </mxCell>
        <mxCell id="u32uMfvf33B-Nm1WtARA-0" value="" style="endArrow=none;html=1;rounded=0;exitX=0.5;exitY=0;exitDx=0;exitDy=0;entryX=0.5;entryY=1;entryDx=0;entryDy=0;" edge="1" parent="WIyWlLk6GJQsqaUBKTNV-1">
          <mxGeometry width="50" height="50" relative="1" as="geometry">
            <mxPoint x="307.5" y="280" as="sourcePoint" />
            <mxPoint x="307.5" y="200" as="targetPoint" />
            <Array as="points" />
          </mxGeometry>
        </mxCell>
        <mxCell id="DKKXcuDHS15RKujLWhHS-0" style="edgeStyle=orthogonalEdgeStyle;rounded=0;orthogonalLoop=1;jettySize=auto;html=1;exitX=0;exitY=0.5;exitDx=0;exitDy=0;endArrow=none;endFill=0;" edge="1" parent="WIyWlLk6GJQsqaUBKTNV-1" source="DKKXcuDHS15RKujLWhHS-1">
          <mxGeometry relative="1" as="geometry">
            <mxPoint x="365" y="240" as="targetPoint" />
          </mxGeometry>
        </mxCell>
        <mxCell id="DKKXcuDHS15RKujLWhHS-1" value="" style="ellipse;whiteSpace=wrap;html=1;aspect=fixed;" vertex="1" parent="WIyWlLk6GJQsqaUBKTNV-1">
          <mxGeometry x="385" y="235" width="10" height="10" as="geometry" />
        </mxCell>
        <mxCell id="DKKXcuDHS15RKujLWhHS-2" value="idioma" style="text;html=1;strokeColor=none;fillColor=none;align=left;verticalAlign=middle;whiteSpace=wrap;rounded=0;fontStyle=0" vertex="1" parent="WIyWlLk6GJQsqaUBKTNV-1">
          <mxGeometry x="395" y="230" width="40" height="20" as="geometry" />
        </mxCell>
        <mxCell id="DKKXcuDHS15RKujLWhHS-12" style="edgeStyle=orthogonalEdgeStyle;rounded=0;orthogonalLoop=1;jettySize=auto;html=1;exitX=1;exitY=0.5;exitDx=0;exitDy=0;endArrow=none;endFill=0;entryX=-0.065;entryY=0.606;entryDx=0;entryDy=0;entryPerimeter=0;" edge="1" parent="WIyWlLk6GJQsqaUBKTNV-1" target="DKKXcuDHS15RKujLWhHS-18">
          <mxGeometry relative="1" as="geometry">
            <mxPoint x="365" y="60.69047619047615" as="targetPoint" />
            <mxPoint x="345" y="60.5" as="sourcePoint" />
          </mxGeometry>
        </mxCell>
        <mxCell id="DKKXcuDHS15RKujLWhHS-15" style="edgeStyle=orthogonalEdgeStyle;rounded=0;orthogonalLoop=1;jettySize=auto;html=1;exitX=0;exitY=0.5;exitDx=0;exitDy=0;endArrow=none;endFill=0;" edge="1" parent="WIyWlLk6GJQsqaUBKTNV-1" source="DKKXcuDHS15RKujLWhHS-16">
          <mxGeometry relative="1" as="geometry">
            <mxPoint x="360" y="40" as="targetPoint" />
          </mxGeometry>
        </mxCell>
        <mxCell id="DKKXcuDHS15RKujLWhHS-16" value="" style="ellipse;whiteSpace=wrap;html=1;aspect=fixed;" vertex="1" parent="WIyWlLk6GJQsqaUBKTNV-1">
          <mxGeometry x="385" y="35" width="10" height="10" as="geometry" />
        </mxCell>
        <mxCell id="DKKXcuDHS15RKujLWhHS-18" value="" style="ellipse;whiteSpace=wrap;html=1;aspect=fixed;" vertex="1" parent="WIyWlLk6GJQsqaUBKTNV-1">
          <mxGeometry x="385" y="55" width="10" height="10" as="geometry" />
        </mxCell>
        <mxCell id="DKKXcuDHS15RKujLWhHS-19" value="data_assinatura" style="text;html=1;strokeColor=none;fillColor=none;align=left;verticalAlign=middle;whiteSpace=wrap;rounded=0;fontStyle=0" vertex="1" parent="WIyWlLk6GJQsqaUBKTNV-1">
          <mxGeometry x="395" y="30" width="40" height="20" as="geometry" />
        </mxCell>
        <mxCell id="DKKXcuDHS15RKujLWhHS-20" value="certificado" style="text;html=1;strokeColor=none;fillColor=none;align=left;verticalAlign=middle;whiteSpace=wrap;rounded=0;fontStyle=0" vertex="1" parent="WIyWlLk6GJQsqaUBKTNV-1">
          <mxGeometry x="395" y="50" width="40" height="20" as="geometry" />
        </mxCell>
        <mxCell id="DKKXcuDHS15RKujLWhHS-22" style="edgeStyle=orthogonalEdgeStyle;rounded=0;orthogonalLoop=1;jettySize=auto;html=1;exitX=0;exitY=0.5;exitDx=0;exitDy=0;endArrow=none;endFill=0;" edge="1" parent="WIyWlLk6GJQsqaUBKTNV-1" source="DKKXcuDHS15RKujLWhHS-23">
          <mxGeometry relative="1" as="geometry">
            <mxPoint x="360" y="80" as="targetPoint" />
          </mxGeometry>
        </mxCell>
        <mxCell id="DKKXcuDHS15RKujLWhHS-23" value="" style="ellipse;whiteSpace=wrap;html=1;aspect=fixed;" vertex="1" parent="WIyWlLk6GJQsqaUBKTNV-1">
          <mxGeometry x="385" y="75" width="10" height="10" as="geometry" />
        </mxCell>
        <mxCell id="DKKXcuDHS15RKujLWhHS-24" value="ultimo_acesso" style="text;html=1;strokeColor=none;fillColor=none;align=left;verticalAlign=middle;whiteSpace=wrap;rounded=0;fontStyle=0" vertex="1" parent="WIyWlLk6GJQsqaUBKTNV-1">
          <mxGeometry x="395" y="70" width="40" height="20" as="geometry" />
        </mxCell>
        <mxCell id="DKKXcuDHS15RKujLWhHS-25" value="" style="html=1;rounded=0;endArrow=none;endFill=0;" edge="1" parent="WIyWlLk6GJQsqaUBKTNV-1">
          <mxGeometry width="100" relative="1" as="geometry">
            <mxPoint x="360" y="80" as="sourcePoint" />
            <mxPoint x="360" y="40" as="targetPoint" />
          </mxGeometry>
        </mxCell>
      </root>
    </mxGraphModel>
  </diagram>
</mxfile>
